HIERARCHY
ROOT Root
{
  OFFSET 0.0 0.0 0.0
  CHANNELS 6 Xposition Yposition Zposition Zrotation Yrotation Xrotation
  JOINT Hips
  {
    OFFSET 0.0 100.0 0.0
    CHANNELS 6 Xposition Yposition Zposition Zrotation Yrotation Xrotation
    JOINT Spine1
    {
      OFFSET 5.003913 -0.037094 -0.013727
      CHANNELS 3 Zrotation Yrotation Xrotation
      JOINT Spine2
      {
        OFFSET 7.125363 -1e-06 0.0
        CHANNELS 3 Zrotation Yrotation Xrotation
        JOINT Chest
        {
          OFFSET 7.594027 1e-06 0.0
          CHANNELS 3 Zrotation Yrotation Xrotation
          JOINT Neck1
          {
            OFFSET 26.313086 -0.460272 -0.181672
            CHANNELS 3 Zrotation Yrotation Xrotation
            JOINT Neck2
            {
              OFFSET 8.04591 0.0 0.0
              CHANNELS 3 Zrotation Yrotation Xrotation
              JOINT Head
              {
                OFFSET 6.432777 0.0 0.0
                CHANNELS 3 Zrotation Yrotation Xrotation
                JOINT HeadEnd
                {
                  OFFSET 16.169769 0.06451 0.00362
                  CHANNELS 3 Zrotation Yrotation Xrotation
                }
                JOINT Jaw
                {
                  OFFSET 0.108738 3.12938 0.002639
                  CHANNELS 3 Zrotation Yrotation Xrotation
                }
                JOINT LeftEye
                {
                  OFFSET 4.451729 8.166359 3.206392
                  CHANNELS 3 Zrotation Yrotation Xrotation
                }
                JOINT RightEye
                {
                  OFFSET 4.43689 8.135758 -3.222429
                  CHANNELS 3 Zrotation Yrotation Xrotation
                }
              }
            }
          }
          JOINT LeftShoulder
          {
            OFFSET 23.218927 5.195579 1.621656
            CHANNELS 3 Zrotation Yrotation Xrotation
            JOINT LeftArm
            {
              OFFSET 15.902122 2e-06 -2e-06
              CHANNELS 3 Zrotation Yrotation Xrotation
              JOINT LeftForeArm
              {
                OFFSET 28.739304 0.0 -1e-06
                CHANNELS 3 Zrotation Yrotation Xrotation
                JOINT LeftHand
                {
                  OFFSET 27.093979 -4e-06 0.0
                  CHANNELS 3 Zrotation Yrotation Xrotation
                  JOINT LeftHandThumb1
                  {
                    OFFSET 2.276787 3.380274 0.83384
                    CHANNELS 3 Zrotation Yrotation Xrotation
                    JOINT LeftHandThumb2
                    {
                      OFFSET 4.705307 -2e-06 -1e-06
                      CHANNELS 3 Zrotation Yrotation Xrotation
                      JOINT LeftHandThumb3
                      {
                        OFFSET 2.798515 0.0 3e-06
                        CHANNELS 3 Zrotation Yrotation Xrotation
                        JOINT LeftHandThumbEnd
                        {
                          OFFSET 3.180786 5e-06 -4e-06
                          CHANNELS 3 Zrotation Yrotation Xrotation
                        }
                      }
                    }
                  }
                  JOINT LeftHandIndex1
                  {
                    OFFSET 3.24778 2.352677 0.137192
                    CHANNELS 3 Zrotation Yrotation Xrotation
                    JOINT LeftHandIndex2
                    {
                      OFFSET 6.367104 1e-06 0.0
                      CHANNELS 3 Zrotation Yrotation Xrotation
                      JOINT LeftHandIndex3
                      {
                        OFFSET 3.662361 0.0 0.0
                        CHANNELS 3 Zrotation Yrotation Xrotation
                        JOINT LeftHandIndex4
                        {
                          OFFSET 2.329239 4e-06 -4e-06
                          CHANNELS 3 Zrotation Yrotation Xrotation
                          JOINT LeftHandIndexEnd
                          {
                            OFFSET 2.767822 0.0 0.0
                            CHANNELS 3 Zrotation Yrotation Xrotation
                          }
                        }
                      }
                    }
                  }
                  JOINT LeftHandMiddle1
                  {
                    OFFSET 3.163612 0.945023 -0.406112
                    CHANNELS 3 Zrotation Yrotation Xrotation
                    JOINT LeftHandMiddle2
                    {
                      OFFSET 6.276794 3e-06 0.0
                      CHANNELS 3 Zrotation Yrotation Xrotation
                      JOINT LeftHandMiddle3
                      {
                        OFFSET 4.356522 -1e-06 4e-06
                        CHANNELS 3 Zrotation Yrotation Xrotation
                        JOINT LeftHandMiddle4
                        {
                          OFFSET 2.996872 0.0 8e-06
                          CHANNELS 3 Zrotation Yrotation Xrotation
                          JOINT LeftHandMiddleEnd
                          {
                            OFFSET 2.323257 3e-06 -4e-06
                            CHANNELS 3 Zrotation Yrotation Xrotation
                          }
                        }
                      }
                    }
                  }
                  JOINT LeftHandRing1
                  {
                    OFFSET 2.882607 -0.309162 0.107445
                    CHANNELS 3 Zrotation Yrotation Xrotation
                    JOINT LeftHandRing2
                    {
                      OFFSET 6.033195 0.0 4e-06
                      CHANNELS 3 Zrotation Yrotation Xrotation
                      JOINT LeftHandRing3
                      {
                        OFFSET 4.350578 3e-06 0.0
                        CHANNELS 3 Zrotation Yrotation Xrotation
                        JOINT LeftHandRing4
                        {
                          OFFSET 2.651321 1e-06 -7e-06
                          CHANNELS 3 Zrotation Yrotation Xrotation
                          JOINT LeftHandRingEnd
                          {
                            OFFSET 1.937668 1e-06 -4e-06
                            CHANNELS 3 Zrotation Yrotation Xrotation
                          }
                        }
                      }
                    }
                  }
                  JOINT LeftHandPinky1
                  {
                    OFFSET 2.865311 -1.525436 0.575687
                    CHANNELS 3 Zrotation Yrotation Xrotation
                    JOINT LeftHandPinky2
                    {
                      OFFSET 5.549362 1e-06 -8e-06
                      CHANNELS 3 Zrotation Yrotation Xrotation
                      JOINT LeftHandPinky3
                      {
                        OFFSET 3.070969 0.0 -4e-06
                        CHANNELS 3 Zrotation Yrotation Xrotation
                        JOINT LeftHandPinky4
                        {
                          OFFSET 1.549675 1e-06 0.0
                          CHANNELS 3 Zrotation Yrotation Xrotation
                          JOINT LeftHandPinkyEnd
                          {
                            OFFSET 1.952118 0.0 0.0
                            CHANNELS 3 Zrotation Yrotation Xrotation
                          }
                        }
                      }
                    }
                  }
                }
              }
            }
          }
          JOINT RightShoulder
          {
            OFFSET 23.161718 5.296122 -1.380114
            CHANNELS 3 Zrotation Yrotation Xrotation
            JOINT RightArm
            {
              OFFSET -16.027195 -2e-06 1.1e-05
              CHANNELS 3 Zrotation Yrotation Xrotation
              JOINT RightForeArm
              {
                OFFSET -28.736641 4e-06 2e-06
                CHANNELS 3 Zrotation Yrotation Xrotation
                JOINT RightHand
                {
                  OFFSET -27.133617 6e-06 0.0
                  CHANNELS 3 Zrotation Yrotation Xrotation
                  JOINT RightHandThumb1
                  {
                    OFFSET -2.274328 -3.351035 -0.83067
                    CHANNELS 3 Zrotation Yrotation Xrotation
                    JOINT RightHandThumb2
                    {
                      OFFSET -4.703592 -3e-06 2e-06
                      CHANNELS 3 Zrotation Yrotation Xrotation
                      JOINT RightHandThumb3
                      {
                        OFFSET -2.794937 -4e-06 -3e-06
                        CHANNELS 3 Zrotation Yrotation Xrotation
                        JOINT RightHandThumbEnd
                        {
                          OFFSET -3.183853 4e-06 1e-06
                          CHANNELS 3 Zrotation Yrotation Xrotation
                        }
                      }
                    }
                  }
                  JOINT RightHandIndex1
                  {
                    OFFSET -3.253498 -2.33755 -0.127667
                    CHANNELS 3 Zrotation Yrotation Xrotation
                    JOINT RightHandIndex2
                    {
                      OFFSET -6.344433 0.0 0.0
                      CHANNELS 3 Zrotation Yrotation Xrotation
                      JOINT RightHandIndex3
                      {
                        OFFSET -3.654869 0.0 -8e-06
                        CHANNELS 3 Zrotation Yrotation Xrotation
                        JOINT RightHandIndex4
                        {
                          OFFSET -2.327587 -1e-06 0.0
                          CHANNELS 3 Zrotation Yrotation Xrotation
                          JOINT RightHandIndexEnd
                          {
                            OFFSET -2.770004 3e-06 8e-06
                            CHANNELS 3 Zrotation Yrotation Xrotation
                          }
                        }
                      }
                    }
                  }
                  JOINT RightHandMiddle1
                  {
                    OFFSET -3.168224 -0.944764 0.411762
                    CHANNELS 3 Zrotation Yrotation Xrotation
                    JOINT RightHandMiddle2
                    {
                      OFFSET -6.266689 -1e-06 -4e-06
                      CHANNELS 3 Zrotation Yrotation Xrotation
                      JOINT RightHandMiddle3
                      {
                        OFFSET -4.348904 0.0 0.0
                        CHANNELS 3 Zrotation Yrotation Xrotation
                        JOINT RightHandMiddle4
                        {
                          OFFSET -3.000237 2e-06 -4e-06
                          CHANNELS 3 Zrotation Yrotation Xrotation
                          JOINT RightHandMiddleEnd
                          {
                            OFFSET -2.32148 -4e-06 -4e-06
                            CHANNELS 3 Zrotation Yrotation Xrotation
                          }
                        }
                      }
                    }
                  }
                  JOINT RightHandRing1
                  {
                    OFFSET -2.885654 0.293261 -0.119232
                    CHANNELS 3 Zrotation Yrotation Xrotation
                    JOINT RightHandRing2
                    {
                      OFFSET -6.032833 -1e-06 -4e-06
                      CHANNELS 3 Zrotation Yrotation Xrotation
                      JOINT RightHandRing3
                      {
                        OFFSET -4.33881 0.0 -4e-06
                        CHANNELS 3 Zrotation Yrotation Xrotation
                        JOINT RightHandRing4
                        {
                          OFFSET -2.654903 -4e-06 -4e-06
                          CHANNELS 3 Zrotation Yrotation Xrotation
                          JOINT RightHandRingEnd
                          {
                            OFFSET -1.935123 0.0 4e-06
                            CHANNELS 3 Zrotation Yrotation Xrotation
                          }
                        }
                      }
                    }
                  }
                  JOINT RightHandPinky1
                  {
                    OFFSET -2.866241 1.503903 -0.60527
                    CHANNELS 3 Zrotation Yrotation Xrotation
                    JOINT RightHandPinky2
                    {
                      OFFSET -5.553177 -1e-06 0.0
                      CHANNELS 3 Zrotation Yrotation Xrotation
                      JOINT RightHandPinky3
                      {
                        OFFSET -3.062664 -1e-06 -4e-06
                        CHANNELS 3 Zrotation Yrotation Xrotation
                        JOINT RightHandPinky4
                        {
                          OFFSET -1.546532 2e-06 4e-06
                          CHANNELS 3 Zrotation Yrotation Xrotation
                          JOINT RightHandPinkyEnd
                          {
                            OFFSET -1.952339 0.0 -4e-06
                            CHANNELS 3 Zrotation Yrotation Xrotation
                          }
                        }
                      }
                    }
                  }
                }
              }
            }
          }
        }
      }
    }
    JOINT LeftLeg
    {
      OFFSET -8.443107 2.567604 10.043214
      CHANNELS 3 Zrotation Yrotation Xrotation
      JOINT LeftShin
      {
        OFFSET 43.229202 1e-06 -1e-06
        CHANNELS 3 Zrotation Yrotation Xrotation
        JOINT LeftFoot
        {
          OFFSET 42.298607 1e-06 1e-06
          CHANNELS 3 Zrotation Yrotation Xrotation
          JOINT LeftToeBase
          {
            OFFSET 14.165863 1e-06 0.0
            CHANNELS 3 Zrotation Yrotation Xrotation
            JOINT LeftToeEnd
            {
              OFFSET 6.714096 -0.234461 0.0
              CHANNELS 3 Zrotation Yrotation Xrotation
            }
          }
        }
      }
    }
    JOINT RightLeg
    {
      OFFSET -8.303924 2.592729 -10.047277
      CHANNELS 3 Zrotation Yrotation Xrotation
      JOINT RightShin
      {
        OFFSET -43.369686 0.0 0.0
        CHANNELS 3 Zrotation Yrotation Xrotation
        JOINT RightFoot
        {
          OFFSET -42.260784 4e-06 3e-06
          CHANNELS 3 Zrotation Yrotation Xrotation
          JOINT RightToeBase
          {
            OFFSET -14.222237 -2e-06 -2e-06
            CHANNELS 3 Zrotation Yrotation Xrotation
            JOINT RightToeEnd
            {
              OFFSET -6.660072 0.232574 -1e-06
              CHANNELS 3 Zrotation Yrotation Xrotation
            }
          }
        }
      }
    }
  }
}
MOTION
Frames: 4
Frame Time: 0.03333333333333333
0.0 0.0 0.0 0.0 -0.0 0.0 -0.98403 61.132957 -1.508205 91.026421 -34.011559 91.509804 20.582733 -1.078537 -0.547456 0.288889 -0.970635 -0.006586 24.064812 -0.971769 -0.540507 -11.681352 1.332059 3.039406 -2.361903 -0.298979 -1.559874 -17.536167 1.856995 -2.978106 6e-06 0.0 -0.0 -0.136057 -0.067917 0.016795 -0.140171 0.07244 -0.069655 -0.115564 -0.213586 0.104681 2.375624 -88.212936 3.482269 60.018654 6.608346 -36.905895 73.890358 1.368146 0.214386 -15.683884 10.810052 12.49807 17.636629 -26.322634 52.411133 -19.466681 -14.395565 29.410385 1.1e-05 -8.77483 -9e-06 15.770656 -18.885412 6.546375 -0.609777 -1.795659 -3.889326 -4.807106 -11.046837 -2.937856 -1.3e-05 -20.976067 -3.1e-05 -5.019971 -25.033674 -4.03195 4e-06 -1e-06 2e-06 -10.634542 -5.686993 -3.565584 10.573258 -17.922958 -3.113914 -3e-06 -13.821229 -2.2e-05 -0.501749 -31.181623 -4.027104 -11.539249 -59.239426 7.576007 -13.982728 -7.150224 -2.875043 13.772726 -8.401491 -3.218242 0.347734 -34.211636 0.771593 -0.963012 -17.733438 2.620995 1e-06 -0.0 0.0 -17.346449 -20.095264 -4.201779 21.757568 -1.638352 3.86644 -6e-06 -6.33883 -8e-06 -1.697583 -22.59182 -6.194076 0.0 -5e-06 -2e-06 -84.145111 -77.807732 -91.014503 64.834503 19.291166 -24.644426 63.890251 -1.390434 0.229113 -12.98205 19.081247 22.458607 22.182127 -20.375824 49.933453 -16.701914 -16.743525 28.47665 6e-06 -12.690642 -5e-06 16.716372 -17.741476 2.550724 -0.105921 -1.51387 -4.275895 -5.039058 -5.612909 -2.953579 -2e-06 -11.020594 -3.3e-05 -6.111313 -15.895494 -3.840546 0.0 1e-06 1e-06 -10.283394 -5.680328 -4.341854 11.028311 -11.302452 -2.372663 -1.384272 -14.238688 -6.320197 -0.62539 -26.924448 -3.827738 -5.021393 -50.248962 -3.065741 -13.708555 -7.363526 -3.720957 18.141182 -14.052792 -3.242712 1.6e-05 -18.787386 -6.6e-05 -0.429707 -8.456104 2.555493 3e-06 0.0 -0.0 -15.92358 -20.094604 -5.473616 30.419279 -7.190831 1.735931 1e-06 -8.162963 -2.3e-05 -1.861852 -22.861656 -6.168087 2e-06 -3e-06 -0.0 72.117363 -20.753531 4.542736 106.921768 -0.304785 0.864331 -102.082298 14.020285 -6.912822 -5.57243 1.360149 2.076756 -0.999999 -0.0 -0.0 -109.834846 -20.749594 -0.242352 109.545021 0.091523 -0.067743 -102.5411 6.543662 -0.265807 -5.378451 0.573528 1.652755 -1.000004 0.0 -0.0 
0.0 0.0 0.0 0.0 -0.0 0.0 -0.967564 61.184925 -1.518109 91.088707 -34.016308 91.433296 20.621603 -1.083233 -0.550875 0.298372 -0.966713 0.008142 24.072752 -0.999403 -0.560835 -11.762478 1.280012 3.050999 -2.372474 -0.287678 -1.603109 -17.593365 1.813987 -2.936448 7e-06 0.0 -0.0 -0.137216 -0.061534 0.009916 -0.127871 0.082618 -0.071843 -0.105798 -0.211069 0.093333 2.231853 -88.235199 3.590241 60.040825 6.626201 -37.123909 73.918449 1.328906 0.209968 -15.636003 10.82571 12.439343 17.636532 -26.32268 52.411125 -19.466581 -14.395575 29.410341 -2e-06 -8.774793 3e-06 15.753376 -18.868534 6.564147 -0.609773 -1.795642 -3.889324 -4.807067 -11.046758 -2.937844 1.4e-05 -20.975924 3e-06 -5.01993 -25.033461 -4.031876 6e-06 -0.0 -1e-06 -10.634494 -5.686943 -3.565582 10.573236 -17.922863 -3.113888 4e-06 -13.821144 1.1e-05 -0.501771 -31.181377 -4.02698 -11.54115 -59.245724 7.603571 -13.98266 -7.150163 -2.875039 13.77268 -8.401457 -3.218236 0.347726 -34.211399 0.771683 -0.963043 -17.733328 2.621042 0.0 -2e-06 -1e-06 -17.346348 -20.095127 -4.201779 21.757477 -1.638371 3.866407 1e-06 -6.338797 6e-06 -1.697569 -22.591654 -6.193985 -2e-06 -4e-06 -3e-06 -84.368111 -77.728172 -90.802147 64.781189 19.226635 -24.747784 63.920212 -1.383414 0.192604 -12.779879 19.183043 22.474447 22.181992 -20.375858 49.933102 -16.701662 -16.743484 28.476364 -6e-06 -12.690522 9e-06 16.617292 -17.712606 2.593735 -0.105918 -1.513842 -4.275862 -5.03901 -5.612822 -2.953533 6e-06 -11.020438 1.6e-05 -6.11125 -15.895194 -3.840429 1e-06 -2e-06 1e-06 -10.283321 -5.680245 -4.341812 11.028231 -11.302321 -2.372607 -1.384257 -14.238458 -6.320064 -0.625442 -26.923971 -3.827521 -5.02859 -50.223045 -3.028608 -13.708457 -7.363422 -3.720917 18.141045 -14.052633 -3.242637 -3e-06 -18.787134 3.7e-05 -0.429723 -8.455995 2.555515 1e-06 1e-06 -2e-06 -15.923459 -20.094337 -5.473546 30.41905 -7.190776 1.735912 -0.0 -8.162876 1.7e-05 -1.861916 -22.861319 -6.16784 0.0 -3e-06 -1e-06 72.172638 -20.787668 4.477806 106.852493 -0.291429 0.84779 -102.045975 14.034908 -6.893054 -5.579158 1.361756 2.075139 -0.999998 -0.0 -0.0 -109.827827 -20.718662 -0.174962 109.451744 0.09121 -0.070429 -102.476425 6.646646 -0.258223 -5.411218 0.582394 1.652996 -1.000003 1e-06 -0.0 
0.0 0.0 0.0 0.0 -0.0 0.0 -0.94138 61.224789 -1.534411 91.153297 -34.036488 91.354401 20.656204 -1.088728 -0.552431 0.315431 -0.962735 0.016816 24.068813 -1.018855 -0.575515 -11.850948 1.214953 3.064207 -2.376938 -0.284601 -1.635827 -17.64826 1.756336 -2.87961 7e-06 0.0 -0.0 -0.139608 -0.057206 0.004457 -0.119228 0.08921 -0.072542 -0.09793 -0.209206 0.083459 2.646656 -88.252357 3.135884 60.042152 6.614855 -37.470364 74.007942 1.241535 0.193529 -15.605435 10.894725 12.529896 17.636414 -26.322598 52.411076 -19.466578 -14.39558 29.410334 5e-06 -8.774782 1.4e-05 15.730598 -18.84551 6.582053 -0.609769 -1.795643 -3.889318 -4.80707 -11.046752 -2.937837 -7e-06 -20.975885 -1.9e-05 -5.019935 -25.033419 -4.031891 5e-06 -0.0 1e-06 -10.634483 -5.68695 -3.565571 10.573215 -17.922838 -3.113912 -6e-06 -13.821127 -9e-06 -0.501766 -31.181337 -4.027036 -11.539022 -59.274418 7.625138 -13.982649 -7.150175 -2.875023 13.772658 -8.401431 -3.218251 0.347711 -34.211334 0.771625 -0.96303 -17.733284 2.62099 -1e-06 -1e-06 0.0 -17.346342 -20.095129 -4.201759 21.757462 -1.638342 3.866379 -5e-06 -6.338789 -1e-06 -1.697586 -22.591644 -6.194007 -1e-06 -4e-06 -3e-06 -84.760506 -77.662102 -90.447777 64.701279 19.171698 -24.766439 63.927437 -1.33715 0.163226 -12.620135 19.239613 22.488977 22.181995 -20.375977 49.933323 -16.701735 -16.743549 28.476528 -7e-06 -12.690565 2.5e-05 16.555574 -17.720434 2.646523 -0.105921 -1.513845 -4.275878 -5.03902 -5.612849 -2.953545 4e-06 -11.020498 1.7e-05 -6.111271 -15.895306 -3.840445 -2e-06 2e-06 2e-06 -10.28334 -5.680264 -4.34183 11.028259 -11.302369 -2.372624 -1.384256 -14.238542 -6.320098 -0.62545 -26.924168 -3.827552 -5.055514 -50.249271 -2.98783 -13.708479 -7.363448 -3.72093 18.141092 -14.052691 -3.242665 -1.5e-05 -18.787243 3.8e-05 -0.429728 -8.456048 2.555529 -2e-06 -0.0 -2e-06 -15.92349 -20.094408 -5.473559 30.419125 -7.190786 1.735887 -9e-06 -8.162921 1.7e-05 -1.861932 -22.861481 -6.167877 -4e-06 -4e-06 -0.0 72.206375 -20.815336 4.415184 106.791214 -0.283807 0.837106 -102.013672 14.05876 -6.876887 -5.597251 1.376364 2.077828 -1.000001 -0.0 0.0 -109.845779 -20.69853 -0.110408 109.363258 0.09575 -0.075147 -102.413681 6.748892 -0.241952 -5.451088 0.579998 1.649911 -1.000003 -0.0 -0.0 
0.0 0.0 0.0 0.0 -0.0 0.0 -0.905542 61.253006 -1.558697 91.220436 -34.068523 91.27739 20.680695 -1.083943 -0.546661 0.332892 -0.961105 0.019392 24.072411 -1.035367 -0.583486 -11.953732 1.12724 3.077824 -2.374937 -0.272187 -1.652961 -17.686007 1.676846 -2.81999 4e-06 0.0 0.0 -0.14393 -0.059342 0.004828 -0.123213 0.089487 -0.071107 -0.102515 -0.213952 0.083142 4.022224 -88.265396 1.738314 60.021866 6.615759 -37.864883 74.111549 1.147106 0.174507 -15.552124 10.988604 12.700434 17.636511 -26.322573 52.410927 -19.466595 -14.395594 29.410278 -7e-06 -8.774795 7e-06 15.714708 -18.834858 6.609163 -0.609771 -1.795641 -3.889312 -4.807059 -11.046744 -2.937836 3e-05 -20.975887 -1e-05 -5.019906 -25.0334 -4.03187 7e-06 0.0 -2e-06 -10.634494 -5.686933 -3.565559 10.573253 -17.922848 -3.113901 1.7e-05 -13.821126 2e-06 -0.501745 -31.18132 -4.026985 -11.569003 -59.301361 7.671863 -13.982659 -7.150148 -2.875018 13.772688 -8.401448 -3.218245 0.347765 -34.21133 0.771644 -0.963013 -17.73328 2.621021 -4e-06 -0.0 0.0 -17.346344 -20.095095 -4.201752 21.757483 -1.63838 3.866386 4e-06 -6.338785 2e-06 -1.697555 -22.59161 -6.193981 -3e-06 -4e-06 -3e-06 -85.289886 -77.588226 -89.95948 64.56842 19.145958 -24.757658 63.935368 -1.286598 0.159229 -12.521286 19.288382 22.43696 22.182018 -20.375774 49.933025 -16.701687 -16.743454 28.476328 -4e-06 -12.69053 -7e-06 16.548689 -17.749817 2.686212 -0.105917 -1.513845 -4.275857 -5.039015 -5.612828 -2.953536 8e-06 -11.020442 4e-06 -6.111252 -15.895215 -3.840452 1e-06 2e-06 -0.0 -10.283323 -5.680253 -4.341813 11.028236 -11.302323 -2.372611 -1.384259 -14.238468 -6.320076 -0.625415 -26.923975 -3.827561 -5.101946 -50.288025 -2.95788 -13.708462 -7.363431 -3.720916 18.141054 -14.052644 -3.24264 1.5e-05 -18.78713 9e-06 -0.429706 -8.455986 2.555502 -3e-06 -0.0 0.0 -15.923465 -20.094355 -5.473552 30.419058 -7.190785 1.73593 3e-06 -8.162868 8e-06 -1.861884 -22.861298 -6.167883 -1e-06 -5e-06 1e-06 72.21035 -20.81707 4.364648 106.754349 -0.280874 0.82645 -101.971504 14.07137 -6.861002 -5.634849 1.400125 2.083731 -0.999999 -0.0 0.0 -109.888832 -20.693733 -0.041971 109.291351 0.102942 -0.081105 -102.365456 6.88078 -0.202931 -5.508622 0.572674 1.645815 -1.000001 -0.0 -0.0 
